inDegrees=no
num_controls=7
num_derivatives=13
num_iterations=124
num_multipliers=7
num_parameters=0
num_slacks=7
num_states=26
objective=0.446237
objective_accelerations=0.056729
objective_balance=0.003467
objective_effort=0.022478
objective_height=0.358017
objective_ligament=0.005547
solver_duration=1916.323247
status=Solve_Succeeded
success=true
DataType=double
version=3
OpenSimVersion=4.5
endheader
time	/jointset/ground_pelvis/pelvis_tilt/value	/jointset/ground_pelvis/pelvis_tx/value	/jointset/ground_pelvis/pelvis_ty/value	/jointset/hip_l/hip_flexion_l/value	/jointset/hip_l/hip_adduction_l/value	/jointset/hip_l/hip_rotation_l/value	/jointset/back/lumbar_extension/value	/jointset/patellofemoral_l/patellar_flexion_l/value	/jointset/knee_l/knee_flexion_l/value	/jointset/knee_l/knee_adduction_l/value	/jointset/knee_l/knee_rotation_l/value	/jointset/ankle_l/ankle_angle_l/value	/jointset/subtalar_l/subtalar_angle_l/value	/jointset/ground_pelvis/pelvis_tilt/speed	/jointset/ground_pelvis/pelvis_tx/speed	/jointset/ground_pelvis/pelvis_ty/speed	/jointset/hip_l/hip_flexion_l/speed	/jointset/hip_l/hip_adduction_l/speed	/jointset/hip_l/hip_rotation_l/speed	/jointset/back/lumbar_extension/speed	/jointset/patellofemoral_l/patellar_flexion_l/speed	/jointset/knee_l/knee_flexion_l/speed	/jointset/knee_l/knee_adduction_l/speed	/jointset/knee_l/knee_rotation_l/speed	/jointset/ankle_l/ankle_angle_l/speed	/jointset/subtalar_l/subtalar_angle_l/speed	/forceset/tau_hip_flexion_l	/forceset/tau_hip_adduction_l	/forceset/tau_hip_rotation_l	/forceset/tau_knee_flexion_l	/forceset/tau_ankle_angle_l	/forceset/tau_subtalar_angle_l	/forceset/tau_lumbar_extension	lambda_cid13_p0	lambda_cid13_p1	lambda_cid13_p2	lambda_cid13_p3	lambda_cid13_p4	lambda_cid13_p5	lambda_cid14_p0	/jointset/ground_pelvis/pelvis_tilt/accel	/jointset/ground_pelvis/pelvis_tx/accel	/jointset/ground_pelvis/pelvis_ty/accel	/jointset/hip_l/hip_flexion_l/accel	/jointset/hip_l/hip_adduction_l/accel	/jointset/hip_l/hip_rotation_l/accel	/jointset/back/lumbar_extension/accel	/jointset/patellofemoral_l/patellar_flexion_l/accel	/jointset/knee_l/knee_flexion_l/accel	/jointset/knee_l/knee_adduction_l/accel	/jointset/knee_l/knee_rotation_l/accel	/jointset/ankle_l/ankle_angle_l/accel	/jointset/subtalar_l/subtalar_angle_l/accel	gamma_cid13_p0	gamma_cid13_p1	gamma_cid13_p2	gamma_cid13_p3	gamma_cid13_p4	gamma_cid13_p5	gamma_cid14_p0
0.5	-0.3325455121089099	-0.03638927328173722	0.762358631415165	1.08476061886981	-0.4360357691619713	-0.224728418586872	-0.2539631274391478	0.8019751928118543	0.8019751928117751	-0.1276137090754687	-0.1581443653391509	0.1092496744949159	-0.03084977955933059	-0.7534968144713315	-0.2091978830950531	-0.5225748644255754	2.436964084414079	-0.2073974263462055	0.7383552682767986	-0.119546882839387	1.978138401923885	1.978138401923955	0.1285642927592878	-0.08864522591355348	0.4644396672813624	0.0007058785461377708	-0.1658134663061564	0.01849320026448268	-0.01135636353889129	-0.2208195380852918	0.06784547470871631	0.04447925419443157	0.1652841028363361	-10.99916144471796	-20.55578605044777	6.555651119249848	-6.872032003564278	-523.0627364856527	-64.16386159096344	-25.37356188609381	0.7589623454973885	0.6076232732269274	-0.4478450094801246	-1.356437016353888	0.7255844023054908	-0.2077209386756071	1.106907343561358	-1.270190567828304	-1.270190567828294	0.07266716971664208	0.1795606295513156	-0.4742630715850504	0.5455025913818845	-5.344559011704198e-07	-4.581296833589062e-07	2.644176420610751e-06	1.29562050764007e-07	-6.0684958311242e-07	-2.041056996635827e-08	-4.360340312594379e-07
0.51	-0.3400407174256151	-0.03845064221644257	0.7571116387834328	1.109057721640602	-0.4380745731210733	-0.2173541958285393	-0.2551044005742324	0.8216899950175468	0.8216899950173784	-0.1263285824767367	-0.1590214215190352	0.1138691320271784	-0.03081733540238228	-0.7454351658793816	-0.2030601535279177	-0.5267114445684428	2.422123731236606	-0.2003484847662799	0.7363885471502358	-0.1087480526204953	1.964558063663193	1.964558063663243	0.1284550065417087	-0.08676036982771175	0.4593753468777475	0.005769037956975208	-0.1712272117906035	0.01922594363079955	-0.01143012211660031	-0.2234373243561909	0.06704722574039035	0.0449117927616776	0.1694179409011728	-11.44892748163641	-20.64894443757326	6.552292287406376	-6.725386793650423	-526.5924036461785	-63.88311679976145	-24.46468749006466	0.8460640028314729	0.6192384254231794	-0.3798510961597142	-1.597821204785568	0.6964829101442352	-0.206638362701773	1.060324594596086	-1.441465007644645	-1.441465007647517	-0.05359258250320822	0.1943312908864935	-0.5339874653734168	0.4843891686287931	-5.213372590242192e-07	-3.574080348925115e-07	2.687826835827429e-06	1.513506936326167e-07	-5.834685282691282e-07	5.062819636800545e-08	-4.287988339360474e-07
0.52	-0.3474520466790437	-0.04045015573008327	0.7518266230343781	1.133196423532352	-0.4400425008895141	-0.2100027384140837	-0.2561388946604197	0.8412610919301425	0.8412610919298829	-0.1250447219531851	-0.1598793524994995	0.1184356521672799	-0.03073472634078678	-0.7367216018159243	-0.1968267988821258	-0.5301794878901009	2.405283908605472	-0.1932221882140284	0.733802199501467	-0.09819107305988353	1.949397343304303	1.949397343304334	0.1283110777238088	-0.08482018603043444	0.4538521888491837	0.01073885947557736	-0.1766409572750503	0.01995868699711555	-0.01150388069434415	-0.2260551106270883	0.0662489767720639	0.04534433132892287	0.1735517789660102	-11.90181792176877	-20.74237155958307	6.549909817973663	-6.613508867507732	-530.1988080827415	-63.66119337805022	-23.55698225410926	0.889345439798869	0.6267482889582335	-0.3141376452383146	-1.75633090708612	0.7410553967706559	-0.3316462431168252	1.058537211905349	-1.586266987467797	-1.586266987467828	0.06573864965249353	0.1906261718384356	-0.5660305965748338	0.526835012934831	-5.040740029514507e-07	-2.537720299866418e-07	2.716469455452928e-06	1.734832644026488e-07	-5.583283116031983e-07	1.230975299609082e-07	-4.18489584602498e-07
0.53	-0.3547731836429687	-0.0423869303485584	0.7465102869785608	1.157157088178001	-0.4419387610551085	-0.2026798628622127	-0.2570690926685223	0.8606728620168403	0.8606728620167505	-0.1237625518853496	-0.1607173766097833	0.1229447441602824	-0.03060282323582192	-0.7274048685088372	-0.1905188137824894	-0.5329720441067398	2.38652733819405	-0.1860216921615777	0.7306743753264486	-0.08790820928110842	1.932702203905225	1.932702203905263	0.1281127162411218	-0.08277911094546117	0.4478943742379345	0.01562262780808666	-0.1818356490531891	0.02045688316173726	-0.01153106881543515	-0.2288736794761506	0.06567323052434705	0.0455977856517024	0.1774730652810618	-12.28708651565497	-20.76474545696581	6.530352928651497	-6.461038828608252	-533.7629399972556	-63.34879753377878	-22.65184936258331	0.9679094682223143	0.6342572967338816	-0.2445717595527366	-1.98364958122871	0.7104372092785959	-0.3184883605377246	1.004208852780887	-1.749225320710309	-1.749225320709085	-0.0640949009047535	0.2122239314906633	-0.6214170735983098	0.4659906687717413	-4.86321507418458e-07	-1.574957331613113e-07	2.733881530778728e-06	1.963253659216253e-07	-5.361707214538253e-07	1.933552373034444e-07	-4.071906645380636e-07
0.54	-0.3619981388354113	-0.04426033838078365	0.7411694739306419	1.180920521224924	-0.4437628381602189	-0.1953912931232613	-0.2578982524604539	0.8799100631286308	0.8799100631287112	-0.1224826597030769	-0.1615347148182833	0.1273921059711326	-0.0304227138624594	-0.7174852475194026	-0.1841534816321486	-0.5350748863104247	2.365837588860289	-0.1787855761172738	0.7269410369176945	-0.07798342982564165	1.914483548322847	1.914483548322894	0.1278555006114166	-0.08068300567393225	0.441506152418751	0.02038011315510633	-0.1870303408313288	0.02095507932635707	-0.0115582569365315	-0.2316922483252134	0.06509748427662927	0.04585123997447921	0.1813943515961134	-12.67630492227918	-20.7870984310623	6.511560495653708	-6.339759529900967	-537.4154436407371	-63.0952723006148	-21.75140746595633	1.009922976268375	0.6382176990990979	-0.1761948426475174	-2.142966691553764	0.7481793951412899	-0.4527490898640077	0.9869203472436711	-1.890970224127845	-1.890970224127814	0.05396782024884726	0.2016322091495616	-0.6521120381616889	0.5015784158369051	-4.680277256741534e-07	-6.936209208466234e-08	2.738868323049539e-06	2.19952480184115e-07	-5.173130585142599e-07	2.611660390072769e-07	-3.94796789622437e-07
0.55	-0.3691210758950855	-0.04606989661498397	0.7358110832349281	1.204467770451714	-0.44551433039563	-0.1881428154043581	-0.2586299985587321	0.8989576472998696	0.8989576472999089	-0.1212056129249734	-0.1623306558541292	0.1317735098600616	-0.03019557827957784	-0.7070070599891085	-0.1777565483007217	-0.5364867131921414	2.34330625901431	-0.1715101697850043	0.7226546563811976	-0.06844247143225946	1.894794821481919	1.894794821481878	0.1275469491665367	-0.07850266990721161	0.4347084907135731	0.02502445531569817	-0.1920698286575171	0.02139235517965693	-0.01152192480157863	-0.2345028310542767	0.06450692880827635	0.04588205797227404	0.1851427495298065	-13.06993121966561	-20.70382002369227	6.466595235137829	-6.108672754988804	-540.9496727781205	-62.67959971396423	-20.86037728519313	1.080967453143821	0.6407202542580854	-0.1062970703135535	-2.354191307388506	0.7172712516856826	-0.4318922666598847	0.9261813450272756	-2.043515973224597	-2.043515973237888	-0.07422367612375785	0.2271630267572774	-0.7034879665086481	0.4421627385125828	-4.46358675943053e-07	1.223384054342837e-08	2.723583040601626e-06	2.39416655752543e-07	-4.949496269395999e-07	3.250157494808994e-07	-3.804261864085358e-07
0.5600000000000001	-0.3761363909171101	-0.0478154276950513	0.7304420501785212	1.227780511344791	-0.4471930585678349	-0.1809402634370435	-0.2592686355211478	0.9178012057908691	0.9178012057908662	-0.1199318430711736	-0.1631046077790415	0.1360849581859764	-0.02992273915062192	-0.6959608399894582	-0.1713480508055489	-0.5372033584490525	2.318935922117594	-0.1642327634760989	0.7177558866000069	-0.05936160265320598	1.873678412275016	1.873678412274885	0.1272001157509632	-0.07628518348753237	0.4275150398158825	0.02952082236998036	-0.1971093164836953	0.0218296310329588	-0.01148559266664478	-0.237313413783339	0.06391637333992292	0.04591287597007126	0.1888911474635092	-13.46632262237238	-20.62018110773104	6.421715489611763	-5.913188777230778	-544.5567265490012	-62.31743086431148	-19.98170695516369	1.12352947013964	0.6405305318482808	-0.03715851768639023	-2.510768101700982	0.7485793904684847	-0.5752269388027429	0.8949024243779256	-2.176506697323022	-2.176506697323049	0.04631142611012638	0.2090623397412844	-0.7312698766642335	0.471983394574976	-4.206393046277981e-07	8.598452303324941e-08	2.683971268491245e-06	2.538853048880972e-07	-4.683792730028265e-07	3.841121504782699e-07	-3.636835092367049e-07
0.5700000000000001	-0.3830385979072322	-0.04949689646031116	0.7250693257214174	1.250840697815134	-0.4487989413164662	-0.1737895203040146	-0.2598187913124008	0.9364266060388374	0.9364266060388549	-0.1186617053797019	-0.163856032985992	0.1403225628951437	-0.02960557950560549	-0.6843912974038853	-0.1649509631444832	-0.5372239848500082	2.292806073616402	-0.1569472235709418	0.7122997716066255	-0.05076272867244448	1.85117257205087	1.851172572050805	0.1268125713685649	-0.07399456427312628	0.4199432184507482	0.03388266411951275	-0.2019682212309487	0.02200083013255956	-0.01137966542454235	-0.2401567907392955	0.06325625359990703	0.04590243452101291	0.1924520731092904	-13.88153897404468	-20.51218526391335	6.369362116470663	-5.617761522792057	-548.0505903872861	-61.98024140648189	-19.11726649596181	1.186994691361456	0.638561162461291	0.03302684704048189	-2.708459032722689	0.7176636944877128	-0.5450480096171049	0.8284039236451297	-2.32191163253437	-2.32191163252451	-0.08342599434037201	0.2403898081592381	-0.7795064985191592	0.4136859916282649	-3.919306714906142e-07	1.546743133946576e-07	2.624131997151803e-06	2.650847176467116e-07	-4.389478271142478e-07	4.367782349452769e-07	-3.445914203376179e-07
0.58	-0.3898224438637796	-0.05111454169311525	0.7196999033099722	1.273630712638788	-0.4503321441852557	-0.1666961871669225	-0.2602857535561014	0.9548200900950483	0.9548200900950875	-0.1173958708568392	-0.1645842863816266	0.1444825757442434	-0.02924572115779656	-0.6722886332744989	-0.1585833443143922	-0.5365429493173399	2.264901592779434	-0.1496967875078493	0.7062738874127933	-0.04272289314288859	1.827295173923764	1.827295173923765	0.1263394820291437	-0.07165082122396116	0.4119966678023688	0.03806056292848076	-0.2068271259781875	0.02217202923216122	-0.01127373818241532	-0.2430001676952538	0.06259613385988932	0.04589199307195429	0.1960129987550863	-14.29932635805019	-20.40369548590827	6.316881709630811	-5.357545913869959	-551.6136959795234	-61.69308888395173	-18.26857988603672	1.230153778902298	0.6346367656533239	0.1031738690384183	-2.865694568856574	0.7415586220555438	-0.6891807788929127	0.7830947341367969	-2.450818277914933	-2.450818277915005	0.02920243470553302	0.2196871066930935	-0.806215733313231	0.4351948064621039	-3.593290462132444e-07	2.167731744725509e-07	2.537949936118704e-06	2.720265202400091e-07	-4.057903079861092e-07	4.810699536983219e-07	-3.224396324448954e-07
0.59	-0.3964828141340863	-0.05266872525979488	0.7143407860945192	1.296133181470465	-0.4517929128946436	-0.159665902213299	-0.2606750849066247	0.9729681114650434	0.9729681114649686	-0.1161349624853361	-0.1652887498942602	0.1485613537521571	-0.02884483396615684	-0.6597035548300149	-0.1522641785581834	-0.535163028468036	2.235308910353245	-0.1424652691173147	0.6996900292622736	-0.03524872204234766	1.80209085068635	1.80209085068627	0.1258267464036604	-0.06923776641838426	0.4037020111009599	0.04208513769926377	-0.2114808597505472	0.02226676056863785	-0.01109972885760867	-0.2458887149253337	0.06199880064574997	0.04569520982222679	0.1993748780358941	-14.69431901157288	-20.21003342816089	6.241414243894434	-5.023242583652197	-555.0381416429536	-61.28201896807907	-17.43677166880626	1.284910005521514	0.6289902688100932	0.1729437157265427	-3.048608248930197	0.7123481706360095	-0.6572067886928447	0.7137765359085874	-2.587914862613156	-2.587914862625269	-0.09373399499303794	0.2532323828556779	-0.8495875561643792	0.3809956749582654	-3.258776789241541e-07	2.703254203186181e-07	2.436587713439136e-06	2.75404168928785e-07	-3.716878208123777e-07	5.173454401347818e-07	-2.993707217826317e-07
